<svg width="398" height="76" viewBox="0 0 398 76" fill="none" xmlns="http://www.w3.org/2000/svg">
<path d="M80.2432 37.7251V6.47351H95.4428C99.294 6.50508 102.135 7.24691 103.966 8.699C105.797 10.1195 106.712 12.1872 106.712 14.902C106.712 16.6697 106.191 18.2008 105.15 19.495C104.108 20.7577 102.514 21.5627 100.367 21.9099V21.9573C102.766 22.2729 104.55 23.1095 105.718 24.4669C106.918 25.7927 107.517 27.4026 107.517 29.2967C107.517 31.9799 106.57 34.0633 104.676 35.547C102.782 36.9991 99.9412 37.7251 96.1531 37.7251H80.2432ZM88.1034 31.9957H94.7799C96.2636 31.9957 97.3684 31.6958 98.0945 31.096C98.8205 30.4962 99.1835 29.6281 99.1835 28.4917C99.1835 27.3868 98.8205 26.5503 98.0945 25.9821C97.3684 25.3823 96.2636 25.0824 94.7799 25.0824H88.1034V31.9957ZM88.1034 19.2583H94.0223C96.9265 19.2583 98.3786 18.1218 98.3786 15.849C98.3786 13.5761 96.9265 12.4397 94.0223 12.4397H88.1034V19.2583Z" fill="white"/>
<path d="M109.16 37.7251L120.145 6.47351H129.9L140.838 37.7251H132.456L126.348 17.6483L124.975 12.7238H124.88L123.602 17.601L117.352 37.7251H109.16ZM116.31 30.6698V25.1298H133.688V30.6698H116.31Z" fill="white"/>
<path d="M152.616 31.4275H168.29V37.7251H144.472V6.47351H152.616V31.4275Z" fill="white"/>
<path d="M181.101 6.47351V37.7251H172.957V6.47351H181.101Z" fill="white"/>
<path d="M214.311 6.47351V12.7712H204.131V37.7251H195.986V12.7712H185.758V6.47351H214.311Z" fill="white"/>
<path d="M230.628 6C233.532 6 236.089 6.45773 238.299 7.37318C240.54 8.25706 242.482 9.5671 244.123 11.3033L240.193 16.5593C238.836 15.1387 237.368 14.0812 235.79 13.3867C234.243 12.6607 232.475 12.2977 230.486 12.2977C229.318 12.2977 228.371 12.4239 227.645 12.6765C226.919 12.929 226.398 13.2763 226.083 13.7182C225.767 14.1601 225.609 14.6652 225.609 15.2334C225.609 15.8963 225.909 16.4646 226.509 16.9381C227.14 17.38 228.15 17.7588 229.539 18.0745L234.795 19.2583C237.92 19.9843 240.209 21.0418 241.661 22.4308C243.113 23.8197 243.839 25.6664 243.839 27.9708C243.839 30.1805 243.271 32.0588 242.135 33.6056C240.998 35.1208 239.436 36.273 237.447 37.0622C235.458 37.8198 233.185 38.1986 230.628 38.1986C228.545 38.1986 226.556 37.9777 224.662 37.5357C222.768 37.0622 221.063 36.3993 219.548 35.547C218.033 34.6947 216.754 33.7161 215.713 32.6112L219.643 27.1659C220.432 28.0813 221.395 28.9021 222.531 29.6281C223.699 30.3226 224.962 30.875 226.319 31.2854C227.708 31.6958 229.113 31.901 230.534 31.901C231.638 31.901 232.554 31.7905 233.28 31.5695C234.038 31.3485 234.59 31.0171 234.937 30.5751C235.284 30.1332 235.458 29.6123 235.458 29.0126C235.458 28.3496 235.221 27.7972 234.748 27.3553C234.274 26.8818 233.375 26.4872 232.049 26.1715L226.272 24.893C224.504 24.4826 222.926 23.946 221.537 23.2831C220.18 22.5886 219.106 21.6732 218.317 20.5367C217.528 19.3687 217.133 17.9167 217.133 16.1805C217.133 14.2233 217.67 12.4871 218.743 10.9718C219.816 9.42505 221.363 8.20971 223.384 7.32583C225.404 6.44194 227.819 6 230.628 6Z" fill="white"/>
<path d="M248.931 37.7251V6.47351H273.269V12.7712H257.075V19.1162H269.955V25.0351H257.075V31.4275H273.885V37.7251H248.931Z" fill="white"/>
<path d="M293.718 6.47351C297.443 6.47351 300.332 7.35739 302.383 9.12516C304.467 10.8614 305.509 13.1816 305.509 16.0857C305.509 19.274 304.483 21.7047 302.431 23.3778C300.379 25.0509 297.491 25.8874 293.766 25.8874L293.008 26.3135H286.805V37.7251H278.803V6.47351H293.718ZM292.582 20.5367C294.16 20.5367 295.344 20.2211 296.133 19.5897C296.922 18.9584 297.317 17.9482 297.317 16.5593C297.317 15.2019 296.922 14.2075 296.133 13.5761C295.344 12.9448 294.16 12.6291 292.582 12.6291H286.805V20.5367H292.582ZM297.364 22.2414L307.355 37.7251H298.359L290.356 24.0407L297.364 22.2414Z" fill="white"/>
<path d="M311.449 37.7251V6.47351H335.787V12.7712H319.593V19.1162H332.473V25.0351H319.593V31.4275H336.403V37.7251H311.449Z" fill="white"/>
<path d="M338.053 37.7251L349.039 6.47351H358.793L369.731 37.7251H361.35L355.242 17.6483L353.869 12.7238H353.774L352.496 17.601L346.245 37.7251H338.053ZM345.203 30.6698V25.1298H362.581V30.6698H345.203Z" fill="white"/>
<path d="M381.51 31.4275H397.183V37.7251H373.366V6.47351H381.51V31.4275Z" fill="white"/>
<g clip-path="url(#clip0_6_7)">
<path fill-rule="evenodd" clip-rule="evenodd" d="M37.0004 0C33.4699 0.211111 31.5634 1.05556 25.9146 3.8C22.1722 5.62963 20.76 6.19259 19.1359 6.75556C17.8649 7.17778 16.4527 7.45926 15.7466 7.45926C15.323 7.45926 15.323 7.52963 15.1817 7.81111C14.8993 8.44444 14.3344 9.57037 13.6989 10.3444C12.7104 11.6815 12.0749 12.4556 8.19128 16.3259C4.23708 20.2667 3.46036 21.1111 2.4012 22.5889C0.635934 24.9815 0.0710486 26.8111 0.000437949 29.9074C-0.0701727 32.1593 0.0710486 33.4259 0.847766 38.6333C1.69509 44.5444 1.83632 46.6556 1.27143 48.7667C1.20082 49.0481 1.13021 49.1889 1.20082 49.2593C1.41265 49.3296 2.4012 50.2444 2.96609 51.0185C4.16647 52.4963 5.08441 54.1148 7.48517 58.9C12.7104 69.3148 14.1226 70.3704 25.8439 72.6222C32.4814 73.9593 34.6703 74.5926 36.5062 75.7889C37.071 76.1407 37.0004 76.1407 37.4241 75.7889C39.3306 74.5222 41.4489 73.8889 48.863 72.4815C56.7008 70.9333 59.2428 69.8778 61.6436 67.063C63.1264 65.3037 64.1855 63.6148 66.5157 58.9C69.1283 53.8333 69.8344 52.4963 71.1054 50.9481C71.5997 50.3852 72.5176 49.3296 72.7294 49.2593C72.8707 49.2593 72.8707 49.1889 72.8707 49.1185C72.1646 46.937 72.2352 44.5444 73.2943 37.5778C73.6474 34.9741 73.9298 32.3704 74.0004 30.6111C74.0004 30.2593 74.0004 28.9222 74.0004 28.7815C74.0004 27.7259 73.5062 25.8963 72.8707 24.6296C71.7409 22.4481 70.1168 20.4778 65.8802 16.3259C62.2084 12.737 60.9375 11.3296 59.8783 9.71111C59.4546 9.14815 58.8897 8.02222 58.8191 7.74074C58.7485 7.52963 58.6779 7.45926 58.2542 7.45926C57.6894 7.45926 56.3478 7.17778 55.3592 6.8963C53.6646 6.4037 52.0405 5.7 48.2275 3.87037C42.4375 1.05556 41.1665 0.281481 37.0004 0Z" fill="#AC6537"/>
<path fill-rule="evenodd" clip-rule="evenodd" d="M36.7883 2.81482C36.8589 2.81482 36.9295 2.81482 37.0001 2.81482C38.9772 2.81482 40.3188 3.23704 44.6261 5.06667C45.4734 5.48889 46.6032 5.91112 47.0974 6.12223C51.5459 8.02223 54.5116 8.86667 57.0535 8.86667H57.689L57.8303 9.21852C58.1833 10.4148 58.96 11.8926 59.9486 13.3C61.0077 14.8482 61.9963 16.0445 65.0326 19.2815C70.399 24.9815 71.1051 26.4593 71.1051 30.7519C71.1051 32.3704 71.1051 32.7926 70.752 35.8889C70.0459 42.7148 70.1165 45.3889 71.0345 48.063L71.2463 48.6963L70.6814 49.1185C68.2806 50.8778 66.6566 53.2 63.1261 59.6037C59.3131 66.6408 57.7596 67.7667 49.71 69.5963C42.1547 71.3556 39.6833 72.2704 37.0707 74.3815C37.0001 74.3815 36.8589 74.3111 36.7177 74.1704C34.3875 72.3408 31.5631 71.2852 24.7138 69.737C16.0993 67.6963 14.8283 66.7111 10.8035 59.463C8.40276 55.0296 7.20238 53.1296 5.79017 51.4407C5.01345 50.5259 3.74246 49.4 2.96574 48.837L2.75391 48.6963L2.96574 48.2037C3.88368 45.5296 3.95429 42.7852 3.31879 36.5222C2.89513 32.9333 2.89513 32.6519 2.89513 30.8222C2.89513 26.3889 3.60123 25.0519 9.03826 19.2111C12.4276 15.6222 13.6986 14.0741 14.7577 12.2444C15.3226 11.3296 15.9581 9.92223 16.1699 9.14815L16.3112 8.86667H16.9467C19.7005 8.86667 22.6661 8.02223 27.8913 5.77038C33.399 3.30741 34.8112 2.88519 36.7883 2.81482Z" fill="#FDCC0B"/>
<path fill-rule="evenodd" clip-rule="evenodd" d="M36.9294 9.99261C21.4657 9.99261 8.89697 22.5185 8.89697 38C8.89697 53.4111 21.4657 65.9371 36.9294 65.9371C52.3932 65.9371 64.9619 53.4111 64.9619 38C64.9619 22.5185 52.3932 9.99261 36.9294 9.99261ZM36.9294 13.3704C50.5573 13.3704 61.6432 24.3482 61.6432 38C61.6432 51.5815 50.5573 62.6297 36.9294 62.6297C23.3016 62.6297 12.2157 51.5815 12.2157 38C12.2157 24.3482 23.3016 13.3704 36.9294 13.3704Z" fill="#D40000"/>
<path fill-rule="evenodd" clip-rule="evenodd" d="M31.6378 48.7331C32.4958 49.1613 32.3528 50.3388 32.174 50.874H33.7827C33.6541 50.3607 33.7105 49.6998 33.7523 49.2099C33.7686 49.0186 33.7827 48.8534 33.7827 48.7331C35.9276 48.305 36.1064 49.8036 35.9277 50.874C36.1064 50.874 36.3448 50.9216 36.5831 50.9691C37.0597 51.0643 37.5364 51.1594 37.5364 50.874C37.5364 49.5895 38.2514 48.9115 38.6089 48.7331V50.874C38.8557 50.9972 39.3243 50.9502 39.7318 50.9094L39.7319 50.9094C39.9145 50.8911 40.0848 50.874 40.2175 50.874C40.2175 50.1889 40.9039 49.5723 41.453 49.0791C41.5903 48.9558 41.719 48.8402 41.8262 48.7331C50.406 50.3388 54.1596 47.1275 54.6958 46.5923C47.4031 39.3134 41.29 43.9162 39.1451 47.1275H37.5364C37.5364 40.705 41.29 37.7613 41.29 38.0289C51.4784 42.8458 57.377 36.9585 57.377 36.4233C49.8697 28.9303 41.8262 34.2824 41.29 34.8176C40.7538 35.3529 39.1451 33.7472 38.6089 33.212C38.0726 32.6768 37.5364 31.6064 38.0726 31.6064C43.9712 22.5078 36.4639 15.55 36.4639 16.0853C29.4929 22.5078 33.7827 30.536 34.8552 32.1416C35.7132 33.4261 33.4253 34.4608 32.174 34.8176C23.1653 30.1078 16.9808 33.9256 15.0146 36.4233C22.1159 41.7391 28.1152 39.3552 30.5799 38.3758L30.5799 38.3758C31.0931 38.1719 31.453 38.0289 31.6378 38.0289C34.8551 40.1698 35.3915 46.0571 35.3915 46.5923C35.3915 47.0205 34.319 47.1275 33.7827 47.1275C27.3479 38.0289 17.6958 46.0571 18.232 46.5923C20.6138 50.5545 26.2284 49.5302 29.419 48.9481C30.5383 48.7439 31.3593 48.5941 31.6378 48.7331ZM36.4638 19.8317C37.5363 21.259 39.0377 25.1838 36.4638 29.4655C35.9276 28.9303 32.7102 25.1838 36.4638 19.8317ZM53.0871 36.073C51.6572 37.1434 47.7248 38.642 43.4349 36.073C43.9712 35.5378 47.7248 32.3265 53.0871 36.073ZM51.4784 46.5923C50.2073 47.3064 46.7119 48.3061 42.8987 46.5923C43.3754 46.2352 46.7119 44.0929 51.4784 46.5923ZM30.5654 46.1812C29.2943 46.8953 25.7989 47.8951 21.9857 46.1812C22.4623 45.8241 25.7989 43.6818 30.5654 46.1812ZM28.4204 36.073C26.9905 37.1434 23.0581 38.642 18.7683 36.073C19.3045 35.5378 23.0581 32.3265 28.4204 36.073ZM36.4639 34.2824L38.6089 36.4233L36.4639 39.0993L34.319 36.4233L36.4639 34.2824Z" fill="#119547"/>
<path fill-rule="evenodd" clip-rule="evenodd" d="M47.0314 54.9989L45.4227 56.6045C45.0887 56.9379 44.7218 57.1351 44.3329 57.1977C43.9481 57.2596 43.5926 57.1817 43.2906 57.0525C42.7254 56.8108 42.2622 56.3481 42.0028 56.089C41.9961 56.0823 41.9896 56.0757 41.9832 56.0693C41.7503 55.8369 41.0317 55.635 40.0603 56.6045C39.7263 56.9379 39.3595 57.1351 38.9706 57.1977C38.5858 57.2596 38.2303 57.1817 37.9283 57.0525C37.363 56.8108 36.8999 56.3481 36.6405 56.089C36.6338 56.0823 36.6273 56.0757 36.6208 56.0693C36.0607 55.5102 35.793 55.5499 35.738 55.5665L34.698 56.6045C34.3715 56.9305 33.975 57.1627 33.5145 57.1627C33.054 57.1627 32.6575 56.9305 32.331 56.6045L32.2415 56.5152L32.2014 56.3953C32.0199 55.8517 31.7915 55.6869 31.6686 55.6346C31.532 55.5765 31.4027 55.6037 31.3413 55.6344L29.1963 56.7048C28.4271 57.0887 27.597 56.8639 26.9458 56.489C26.284 56.1079 25.6897 55.5114 25.293 54.9173L26.1853 54.3236C26.5035 54.8 26.9818 55.2739 27.4817 55.5618C27.9924 55.8559 28.4135 55.8987 28.7167 55.7474L30.8617 54.677C31.1577 54.5292 31.6182 54.4494 32.0894 54.65C32.5447 54.8438 32.9227 55.261 33.172 55.9246C33.3363 56.066 33.4492 56.0923 33.5145 56.0923C33.5902 56.0923 33.73 56.0569 33.9397 55.8476L35.0121 54.7772L35.3913 55.1557L35.0121 54.7772C35.5158 54.2745 36.45 54.385 37.3792 55.3124C37.6602 55.5929 37.9922 55.9153 38.3507 56.0687C38.518 56.1402 38.6651 56.1626 38.7998 56.1409C38.9304 56.1199 39.0998 56.0495 39.302 55.8476C40.4756 54.6763 41.9019 54.4745 42.7415 55.3124C43.0225 55.5929 43.3545 55.9153 43.7131 56.0687C43.8803 56.1402 44.0274 56.1626 44.1621 56.1409C44.2927 56.1199 44.4621 56.0495 44.6643 55.8476L46.273 54.242L47.0314 54.9989Z" fill="#119547"/>
</g>
<path d="M79.6465 53.4088V45.4888H82.7665C83.7185 45.4888 84.4145 45.6808 84.8545 46.0648C85.2945 46.4488 85.5145 46.9808 85.5145 47.6608C85.5145 48.0768 85.3945 48.4488 85.1545 48.7768C84.9145 49.0968 84.5625 49.3008 84.0985 49.3888V49.4008C84.6105 49.4808 85.0065 49.6928 85.2865 50.0368C85.5745 50.3728 85.7185 50.7648 85.7185 51.2128C85.7185 51.8928 85.4705 52.4288 84.9745 52.8208C84.4785 53.2128 83.7585 53.4088 82.8145 53.4088H79.6465ZM80.9065 52.3408H82.8745C83.3785 52.3408 83.7545 52.2368 84.0025 52.0288C84.2585 51.8208 84.3865 51.5288 84.3865 51.1528C84.3865 50.7768 84.2585 50.4848 84.0025 50.2768C83.7545 50.0688 83.3785 49.9648 82.8745 49.9648H80.9065V52.3408ZM80.9065 48.8968H82.6705C83.6785 48.8968 84.1825 48.5088 84.1825 47.7328C84.1825 46.9568 83.6785 46.5688 82.6705 46.5688H80.9065V48.8968Z" fill="white"/>
<path d="M86.562 53.4088L89.55 45.4888H91.086L94.074 53.4088H92.718L90.678 47.7448L90.318 46.6048H90.282L89.946 47.7208L87.882 53.4088H86.562ZM88.158 51.3328V50.2888H92.442V51.3328H88.158Z" fill="white"/>
<path d="M98.2745 45.4888C99.5145 45.4888 100.479 45.8328 101.167 46.5208C101.863 47.2008 102.211 48.1768 102.211 49.4488C102.211 50.7208 101.863 51.7008 101.167 52.3888C100.479 53.0688 99.5145 53.4088 98.2745 53.4088H95.4785V45.4888H98.2745ZM98.2745 52.3168C99.1145 52.3168 99.7545 52.0688 100.195 51.5728C100.643 51.0688 100.867 50.3608 100.867 49.4488C100.867 48.5368 100.643 47.8328 100.195 47.3368C99.7545 46.8328 99.1145 46.5808 98.2745 46.5808H96.7625V52.3168H98.2745Z" fill="white"/>
<path d="M102.898 53.4088L105.886 45.4888H107.422L110.41 53.4088H109.054L107.014 47.7448L106.654 46.6048H106.618L106.282 47.7208L104.218 53.4088H102.898ZM104.494 51.3328V50.2888H108.778V51.3328H104.494Z" fill="white"/>
<path d="M118.306 45.4888V53.4088H116.782L113.722 48.4168L112.954 47.0128H112.942L112.99 48.2968V53.4088H111.814V45.4888H113.326L116.374 50.4688L117.154 51.8968H117.166L117.118 50.6008V45.4888H118.306Z" fill="white"/>
<path d="M127.601 45.4888C128.169 45.4888 128.657 45.5888 129.065 45.7888C129.481 45.9888 129.805 46.2728 130.037 46.6408C130.269 47.0088 130.385 47.4528 130.385 47.9728C130.385 48.4848 130.269 48.9288 130.037 49.3048C129.805 49.6728 129.481 49.9568 129.065 50.1568C128.657 50.3568 128.169 50.4568 127.601 50.4568H125.837V53.4088H124.553V45.4888H127.601ZM127.397 49.3528C127.965 49.3528 128.381 49.2368 128.645 49.0048C128.917 48.7648 129.053 48.4208 129.053 47.9728C129.053 47.5168 128.917 47.1728 128.645 46.9408C128.381 46.7008 127.965 46.5808 127.397 46.5808H125.837V49.3528H127.397Z" fill="white"/>
<path d="M132.076 53.4088V45.4888H137.812V46.5928H133.36V48.8728H136.84V49.9528H133.36V52.3048H137.98V53.4088H132.076Z" fill="white"/>
<path d="M146.197 45.4888V53.4088H144.673L141.613 48.4168L140.845 47.0128H140.833L140.881 48.2968V53.4088H139.705V45.4888H141.217L144.265 50.4688L145.045 51.8968H145.057L145.009 50.6008V45.4888H146.197Z" fill="white"/>
<path d="M148.541 53.4088V45.4888H154.277V46.5928H149.825V48.8728H153.305V49.9528H149.825V52.3048H154.445V53.4088H148.541Z" fill="white"/>
<path d="M157.454 52.3048H161.822V53.4088H156.17V45.4888H157.454V52.3048Z" fill="white"/>
<path d="M164.638 45.4888V53.4088H163.354V45.4888H164.638Z" fill="white"/>
<path d="M172.878 45.4888V46.5928H170.166V53.4088H168.882V46.5928H166.17V45.4888H172.878Z" fill="white"/>
<path d="M175.7 45.4888V53.4088H174.416V45.4888H175.7Z" fill="white"/>
<path d="M177.113 53.4088L180.101 45.4888H181.637L184.625 53.4088H183.269L181.229 47.7448L180.869 46.6048H180.833L180.497 47.7208L178.433 53.4088H177.113ZM178.709 51.3328V50.2888H182.993V51.3328H178.709Z" fill="white"/>
<path d="M192.521 45.4888V53.4088H190.997L187.937 48.4168L187.169 47.0128H187.157L187.205 48.2968V53.4088H186.029V45.4888H187.541L190.589 50.4688L191.369 51.8968H191.381L191.333 50.6008V45.4888H192.521Z" fill="white"/>
<path d="M201.564 45.4888C202.804 45.4888 203.768 45.8328 204.456 46.5208C205.152 47.2008 205.5 48.1768 205.5 49.4488C205.5 50.7208 205.152 51.7008 204.456 52.3888C203.768 53.0688 202.804 53.4088 201.564 53.4088H198.768V45.4888H201.564ZM201.564 52.3168C202.404 52.3168 203.044 52.0688 203.484 51.5728C203.932 51.0688 204.156 50.3608 204.156 49.4488C204.156 48.5368 203.932 47.8328 203.484 47.3368C203.044 46.8328 202.404 46.5808 201.564 46.5808H200.052V52.3168H201.564Z" fill="white"/>
<path d="M206.187 53.4088L209.175 45.4888H210.711L213.699 53.4088H212.343L210.303 47.7448L209.943 46.6048H209.907L209.571 47.7208L207.507 53.4088H206.187ZM207.783 51.3328V50.2888H212.067V51.3328H207.783Z" fill="white"/>
<path d="M221.596 45.4888V53.4088H220.072L217.012 48.4168L216.244 47.0128H216.232L216.28 48.2968V53.4088H215.104V45.4888H216.616L219.664 50.4688L220.444 51.8968H220.456L220.408 50.6008V45.4888H221.596Z" fill="white"/>
<path d="M230.89 45.4888C231.458 45.4888 231.946 45.5888 232.354 45.7888C232.77 45.9888 233.094 46.2728 233.326 46.6408C233.558 47.0088 233.674 47.4528 233.674 47.9728C233.674 48.4848 233.558 48.9288 233.326 49.3048C233.094 49.6728 232.77 49.9568 232.354 50.1568C231.946 50.3568 231.458 50.4568 230.89 50.4568H229.126V53.4088H227.842V45.4888H230.89ZM230.686 49.3528C231.254 49.3528 231.67 49.2368 231.934 49.0048C232.206 48.7648 232.342 48.4208 232.342 47.9728C232.342 47.5168 232.206 47.1728 231.934 46.9408C231.67 46.7008 231.254 46.5808 230.686 46.5808H229.126V49.3528H230.686Z" fill="white"/>
<path d="M235.365 53.4088V45.4888H241.101V46.5928H236.649V48.8728H240.129V49.9528H236.649V52.3048H241.269V53.4088H235.365Z" fill="white"/>
<path d="M249.486 45.4888V53.4088H247.962L244.902 48.4168L244.134 47.0128H244.122L244.17 48.2968V53.4088H242.994V45.4888H244.506L247.554 50.4688L248.334 51.8968H248.346L248.298 50.6008V45.4888H249.486Z" fill="white"/>
<path d="M255.046 53.5288C254.302 53.5288 253.658 53.3648 253.114 53.0368C252.57 52.7088 252.146 52.2448 251.842 51.6448C251.538 51.0368 251.386 50.3048 251.386 49.4488C251.386 48.6088 251.542 47.8848 251.854 47.2768C252.174 46.6688 252.622 46.2008 253.198 45.8728C253.782 45.5368 254.45 45.3688 255.202 45.3688C256.026 45.3688 256.69 45.5208 257.194 45.8248C257.706 46.1288 258.114 46.6008 258.418 47.2408L257.23 47.8048C257.078 47.3648 256.826 47.0368 256.474 46.8208C256.13 46.5968 255.71 46.4848 255.214 46.4848C254.718 46.4848 254.282 46.6008 253.906 46.8328C253.538 47.0648 253.25 47.4048 253.042 47.8528C252.834 48.2928 252.73 48.8248 252.73 49.4488C252.73 50.0808 252.822 50.6208 253.006 51.0688C253.19 51.5088 253.466 51.8448 253.834 52.0768C254.21 52.3088 254.67 52.4248 255.214 52.4248C255.51 52.4248 255.786 52.3888 256.042 52.3168C256.298 52.2368 256.522 52.1248 256.714 51.9808C256.906 51.8288 257.054 51.6408 257.158 51.4168C257.27 51.1848 257.326 50.9128 257.326 50.6008V50.3728H255.022V49.3288H258.466V53.4088H257.506L257.434 51.8128L257.674 51.9328C257.482 52.4368 257.162 52.8288 256.714 53.1088C256.274 53.3888 255.718 53.5288 255.046 53.5288Z" fill="white"/>
<path d="M260.514 53.4088V45.4888H266.25V46.5928H261.798V48.8728H265.278V49.9528H261.798V52.3048H266.418V53.4088H260.514Z" fill="white"/>
<path d="M276.243 45.4888V53.4088H275.055V48.8248L275.151 46.6408H275.139L272.727 53.4088H271.659L269.247 46.6408H269.235L269.331 48.8248V53.4088H268.143V45.4888H270.051L271.647 50.0728L272.199 51.9568H272.223L272.787 50.0728L274.371 45.4888H276.243Z" fill="white"/>
<path d="M278.596 53.4088V45.4888H281.716C282.668 45.4888 283.364 45.6808 283.804 46.0648C284.244 46.4488 284.464 46.9808 284.464 47.6608C284.464 48.0768 284.344 48.4488 284.104 48.7768C283.864 49.0968 283.512 49.3008 283.048 49.3888V49.4008C283.56 49.4808 283.956 49.6928 284.236 50.0368C284.524 50.3728 284.668 50.7648 284.668 51.2128C284.668 51.8928 284.42 52.4288 283.924 52.8208C283.428 53.2128 282.708 53.4088 281.764 53.4088H278.596ZM279.856 52.3408H281.824C282.328 52.3408 282.704 52.2368 282.952 52.0288C283.208 51.8208 283.336 51.5288 283.336 51.1528C283.336 50.7768 283.208 50.4848 282.952 50.2768C282.704 50.0688 282.328 49.9648 281.824 49.9648H279.856V52.3408ZM279.856 48.8968H281.62C282.628 48.8968 283.132 48.5088 283.132 47.7328C283.132 46.9568 282.628 46.5688 281.62 46.5688H279.856V48.8968Z" fill="white"/>
<path d="M285.511 53.4088L288.499 45.4888H290.035L293.023 53.4088H291.667L289.627 47.7448L289.267 46.6048H289.231L288.895 47.7208L286.831 53.4088H285.511ZM287.107 51.3328V50.2888H291.391V51.3328H287.107Z" fill="white"/>
<path d="M300.92 45.4888V53.4088H299.396L296.336 48.4168L295.568 47.0128H295.556L295.604 48.2968V53.4088H294.428V45.4888H295.94L298.988 50.4688L299.768 51.8968H299.78L299.732 50.6008V45.4888H300.92Z" fill="white"/>
<path d="M306.48 53.5288C305.736 53.5288 305.092 53.3648 304.548 53.0368C304.004 52.7088 303.58 52.2448 303.276 51.6448C302.972 51.0368 302.82 50.3048 302.82 49.4488C302.82 48.6088 302.976 47.8848 303.288 47.2768C303.608 46.6688 304.056 46.2008 304.632 45.8728C305.216 45.5368 305.884 45.3688 306.636 45.3688C307.46 45.3688 308.124 45.5208 308.628 45.8248C309.14 46.1288 309.548 46.6008 309.852 47.2408L308.664 47.8048C308.512 47.3648 308.26 47.0368 307.908 46.8208C307.564 46.5968 307.144 46.4848 306.648 46.4848C306.152 46.4848 305.716 46.6008 305.34 46.8328C304.972 47.0648 304.684 47.4048 304.476 47.8528C304.268 48.2928 304.164 48.8248 304.164 49.4488C304.164 50.0808 304.256 50.6208 304.44 51.0688C304.624 51.5088 304.9 51.8448 305.268 52.0768C305.644 52.3088 306.104 52.4248 306.648 52.4248C306.944 52.4248 307.22 52.3888 307.476 52.3168C307.732 52.2368 307.956 52.1248 308.148 51.9808C308.34 51.8288 308.488 51.6408 308.592 51.4168C308.704 51.1848 308.76 50.9128 308.76 50.6008V50.3728H306.456V49.3288H309.9V53.4088H308.94L308.868 51.8128L309.108 51.9328C308.916 52.4368 308.596 52.8288 308.148 53.1088C307.708 53.3888 307.152 53.5288 306.48 53.5288Z" fill="white"/>
<path d="M311.011 53.4088L313.999 45.4888H315.535L318.523 53.4088H317.167L315.127 47.7448L314.767 46.6048H314.731L314.395 47.7208L312.331 53.4088H311.011ZM312.607 51.3328V50.2888H316.891V51.3328H312.607Z" fill="white"/>
<path d="M326.42 45.4888V53.4088H324.896L321.836 48.4168L321.068 47.0128H321.056L321.104 48.2968V53.4088H319.928V45.4888H321.44L324.488 50.4688L325.268 51.8968H325.28L325.232 50.6008V45.4888H326.42Z" fill="white"/>
<path d="M335.714 45.4888C336.282 45.4888 336.77 45.5888 337.178 45.7888C337.594 45.9888 337.918 46.2728 338.15 46.6408C338.382 47.0088 338.498 47.4528 338.498 47.9728C338.498 48.4848 338.382 48.9288 338.15 49.3048C337.918 49.6728 337.594 49.9568 337.178 50.1568C336.77 50.3568 336.282 50.4568 335.714 50.4568H333.95V53.4088H332.666V45.4888H335.714ZM335.51 49.3528C336.078 49.3528 336.494 49.2368 336.758 49.0048C337.03 48.7648 337.166 48.4208 337.166 47.9728C337.166 47.5168 337.03 47.1728 336.758 46.9408C336.494 46.7008 336.078 46.5808 335.51 46.5808H333.95V49.3528H335.51Z" fill="white"/>
<path d="M340.189 53.4088V45.4888H345.925V46.5928H341.473V48.8728H344.953V49.9528H341.473V52.3048H346.093V53.4088H340.189Z" fill="white"/>
<path d="M351.046 45.4888C351.894 45.4888 352.566 45.7008 353.062 46.1248C353.566 46.5488 353.818 47.1208 353.818 47.8408C353.818 48.5848 353.566 49.1608 353.062 49.5688C352.566 49.9688 351.894 50.1688 351.046 50.1688L350.926 50.2408H349.09V53.4088H347.818V45.4888H351.046ZM350.95 49.1728C351.47 49.1728 351.854 49.0688 352.102 48.8608C352.358 48.6448 352.486 48.3168 352.486 47.8768C352.486 47.4448 352.358 47.1208 352.102 46.9048C351.854 46.6888 351.47 46.5808 350.95 46.5808H349.09V49.1728H350.95ZM351.706 49.4368L354.286 53.4088H352.81L350.602 49.9408L351.706 49.4368Z" fill="white"/>
<path d="M361.585 45.4888V46.5928H358.873V53.4088H357.589V46.5928H354.877V45.4888H361.585Z" fill="white"/>
<path d="M361.132 53.4088L364.12 45.4888H365.656L368.644 53.4088H367.288L365.248 47.7448L364.888 46.6048H364.852L364.516 47.7208L362.452 53.4088H361.132ZM362.728 51.3328V50.2888H367.012V51.3328H362.728Z" fill="white"/>
<path d="M376.541 45.4888V53.4088H375.017L371.957 48.4168L371.189 47.0128H371.177L371.225 48.2968V53.4088H370.049V45.4888H371.561L374.609 50.4688L375.389 51.8968H375.401L375.353 50.6008V45.4888H376.541Z" fill="white"/>
<path d="M380.169 45.4888V53.4088H378.885V45.4888H380.169Z" fill="white"/>
<path d="M381.582 53.4088L384.57 45.4888H386.106L389.094 53.4088H387.738L385.698 47.7448L385.338 46.6048H385.302L384.966 47.7208L382.902 53.4088H381.582ZM383.178 51.3328V50.2888H387.462V51.3328H383.178Z" fill="white"/>
<path d="M396.99 45.4888V53.4088H395.466L392.406 48.4168L391.638 47.0128H391.626L391.674 48.2968V53.4088H390.498V45.4888H392.01L395.058 50.4688L395.838 51.8968H395.85L395.802 50.6008V45.4888H396.99Z" fill="white"/>
<path d="M86.2633 59.7791L82.6675 63.6685L82.5207 63.6807L80.4292 65.9312L80.3069 64.5002L84.6611 59.7791H86.2633ZM80.9552 59.7791V67.8514H79.6465V59.7791H80.9552ZM82.9365 62.6656L86.3367 67.8514H84.7956L81.8969 63.3994L82.9365 62.6656Z" fill="white"/>
<path d="M95.8154 67.8514V59.7791H101.662V60.9043H97.124V63.2282H100.671V64.3289H97.124V66.7261H101.833V67.8514H95.8154Z" fill="white"/>
<path d="M119.858 59.7791V67.8514H118.647V63.1792L118.745 60.9533H118.733L116.274 67.8514H115.186L112.727 60.9533H112.715L112.813 63.1792V67.8514H111.602V59.7791H113.547L115.173 64.4512L115.736 66.3715H115.76L116.335 64.4512L117.95 59.7791H119.858Z" fill="white"/>
<path d="M130.267 67.8514V59.7791H136.113V60.9043H131.576V63.2282H135.123V64.3289H131.576V66.7261H136.285V67.8514H130.267Z" fill="white"/>
<path d="M152.671 59.7791V67.8514H151.117L147.999 62.7634L147.216 61.3324H147.204L147.252 62.6411V67.8514H146.054V59.7791H147.595L150.702 64.8548L151.497 66.3103H151.509L151.46 64.9894V59.7791H152.671Z" fill="white"/>
<path d="M169.076 59.7791V60.9043H166.312V67.8514H165.003V60.9043H162.239V59.7791H169.076Z" fill="white"/>
<path d="M178.654 67.8514V59.7791H184.501V60.9043H179.963V63.2282H183.51V64.3289H179.963V66.7261H184.672V67.8514H178.654Z" fill="white"/>
<path d="M197.731 59.7791C198.595 59.7791 199.28 59.9952 199.786 60.4273C200.3 60.8595 200.556 61.4425 200.556 62.1763C200.556 62.9346 200.3 63.5217 199.786 63.9375C199.28 64.3452 198.595 64.5491 197.731 64.5491L197.609 64.6225H195.738V67.8514H194.441V59.7791H197.731ZM197.633 63.5339C198.163 63.5339 198.555 63.4279 198.807 63.2159C199.068 62.9958 199.199 62.6615 199.199 62.213C199.199 61.7727 199.068 61.4425 198.807 61.2223C198.555 61.0022 198.163 60.8921 197.633 60.8921H195.738V63.5339H197.633ZM198.404 63.803L201.033 67.8514H199.529L197.279 64.3167L198.404 63.803Z" fill="white"/>
<path d="M211.978 59.7791V67.8514H210.67V59.7791H211.978Z" fill="white"/>
<path d="M221.429 67.8514L224.475 59.7791H226.04L229.086 67.8514H227.704L225.625 62.0785L225.258 60.9166H225.221L224.878 62.054L222.775 67.8514H221.429ZM223.056 65.7355V64.6714H227.422V65.7355H223.056Z" fill="white"/>
<path d="M245.145 59.7791V67.8514H243.592L240.473 62.7634L239.69 61.3324H239.678L239.727 62.6411V67.8514H238.528V59.7791H240.069L243.176 64.8548L243.971 66.3103H243.983L243.934 64.9894V59.7791H245.145Z" fill="white"/>
<path d="M270.64 59.7791C271.219 59.7791 271.717 59.881 272.133 60.0849C272.557 60.2887 272.887 60.5782 273.123 60.9533C273.36 61.3283 273.478 61.7809 273.478 62.3109C273.478 62.8327 273.36 63.2852 273.123 63.6685C272.887 64.0435 272.557 64.333 272.133 64.5369C271.717 64.7407 271.219 64.8426 270.64 64.8426H268.842V67.8514H267.534V59.7791H270.64ZM270.432 63.7174C271.011 63.7174 271.435 63.5992 271.704 63.3627C271.982 63.1181 272.12 62.7675 272.12 62.3109C272.12 61.8461 271.982 61.4955 271.704 61.259C271.435 61.0144 271.011 60.8921 270.432 60.8921H268.842V63.7174H270.432Z" fill="white"/>
<path d="M283.213 67.8514V59.7791H289.059V60.9043H284.522V63.2282H288.069V64.3289H284.522V66.7261H289.23V67.8514H283.213Z" fill="white"/>
<path d="M302.29 59.7791C303.154 59.7791 303.839 59.9952 304.344 60.4273C304.858 60.8595 305.115 61.4425 305.115 62.1763C305.115 62.9346 304.858 63.5217 304.344 63.9375C303.839 64.3452 303.154 64.5491 302.29 64.5491L302.167 64.6225H300.296V67.8514H299V59.7791H302.29ZM302.192 63.5339C302.722 63.5339 303.113 63.4279 303.366 63.2159C303.627 62.9958 303.757 62.6615 303.757 62.213C303.757 61.7727 303.627 61.4425 303.366 61.2223C303.113 61.0022 302.722 60.8921 302.192 60.8921H300.296V63.5339H302.192ZM302.962 63.803L305.592 67.8514H304.088L301.837 64.3167L302.962 63.803Z" fill="white"/>
<path d="M321.042 59.7791V60.9043H318.278V67.8514H316.97V60.9043H314.205V59.7791H321.042Z" fill="white"/>
<path d="M328.592 67.8514L331.637 59.7791H333.203L336.248 67.8514H334.866L332.787 62.0785L332.42 60.9166H332.383L332.041 62.054L329.937 67.8514H328.592ZM330.218 65.7355V64.6714H334.585V65.7355H330.218Z" fill="white"/>
<path d="M352.308 59.7791V67.8514H350.754L347.635 62.7634L346.853 61.3324H346.84L346.889 62.6411V67.8514H345.691V59.7791H347.232L350.338 64.8548L351.133 66.3103H351.146L351.097 64.9894V59.7791H352.308Z" fill="white"/>
<path d="M364.016 59.7791V67.8514H362.708V59.7791H364.016Z" fill="white"/>
<path d="M373.467 67.8514L376.513 59.7791H378.078L381.124 67.8514H379.742L377.663 62.0785L377.296 60.9166H377.259L376.916 62.054L374.813 67.8514H373.467ZM375.094 65.7355V64.6714H379.46V65.7355H375.094Z" fill="white"/>
<path d="M397.183 59.7791V67.8514H395.63L392.511 62.7634L391.728 61.3324H391.716L391.765 62.6411V67.8514H390.566V59.7791H392.107L395.214 64.8548L396.009 66.3103H396.021L395.972 64.9894V59.7791H397.183Z" fill="white"/>
<defs>
<clipPath id="clip0_6_7">
<rect width="74" height="76" fill="white"/>
</clipPath>
</defs>
</svg>
